<svg xmlns="http://www.w3.org/2000/svg" viewBox="0 0 900 650">
  <!-- Fondo -->
  <rect width="900" height="650" fill="#f3f4f6"/>
  
  <!-- Título -->
  <text x="450" y="25" text-anchor="middle" font-size="16" font-weight="bold" fill="#1e40af">MOCKUP - DASHBOARD USUARIO</text>
  
  <!-- Navbar -->
  <rect x="50" y="50" width="800" height="50" rx="5" fill="#1e40af"/>
  <text x="80" y="82" font-size="18" fill="white">🏛️ ITSC</text>
  <text x="200" y="82" font-size="12" fill="white">Dashboard</text>
  <text x="280" y="82" font-size="12" fill="white">Reportes</text>
  <text x="360" y="82" font-size="12" fill="white">Historial</text>
  <text x="450" y="82" font-size="12" fill="white">🔔</text>
  <rect x="700" y="65" width="130" height="30" rx="5" fill="#dc2626"/>
  <text x="765" y="85" text-anchor="middle" font-size="11" fill="white">Cerrar sesión</text>
  <rect x="580" y="63" width="100" height="34" rx="5" fill="#3b82f6"/>
  <text x="630" y="78" text-anchor="middle" font-size="10" fill="white">👤 Juan Pérez</text>
  <text x="630" y="90" text-anchor="middle" font-size="9" fill="white">Estudiante</text>
  
  <!-- Sidebar Stats -->
  <rect x="50" y="120" width="200" height="200" rx="5" fill="white" stroke="#e5e7eb"/>
  <text x="150" y="145" text-anchor="middle" font-size="12" font-weight="bold" fill="#1f2937">Mis Reportes</text>
  
  <rect x="70" y="160" width="160" height="50" rx="5" fill="#fef3c7"/>
  <text x="150" y="180" text-anchor="middle" font-size="24" font-weight="bold" fill="#f59e0b">12</text>
  <text x="150" y="200" text-anchor="middle" font-size="10" fill="#92400e">Totales</text>
  
  <rect x="70" y="220" width="75" height="45" rx="5" fill="#fef2f2"/>
  <text x="107" y="240" text-anchor="middle" font-size="18" font-weight="bold" fill="#ef4444">3</text>
  <text x="107" y="258" text-anchor="middle" font-size="9" fill="#dc2626">Pendientes</text>
  
  <rect x="155" y="220" width="75" height="45" rx="5" fill="#ecfdf5"/>
  <text x="192" y="240" text-anchor="middle" font-size="18" font-weight="bold" fill="#10b981">5</text>
  <text x="192" y="258" text-anchor="middle" font-size="9" fill="#059669">Resueltos</text>
  
  <rect x="70" y="275" width="160" height="35" rx="5" fill="#dbeafe"/>
  <text x="150" y="297" text-anchor="middle" font-size="11" font-weight="bold" fill="#1e40af">+ Nuevo Reporte</text>
  
  <!-- Tabla de Reportes -->
  <rect x="270" y="120" width="580" height="300" rx="5" fill="white" stroke="#e5e7eb"/>
  <text x="300" y="145" font-size="12" font-weight="bold" fill="#1f2937">Reportes Recientes</text>
  
  <!-- Header Tabla -->
  <rect x="280" y="160" width="560" height="30" fill="#f9fafb"/>
  <text x="300" y="180" font-size="9" font-weight="bold" fill="#6b7280">#</text>
  <text x="330" y="180" font-size="9" font-weight="bold" fill="#6b7280">Ubicación</text>
  <text x="480" y="180" font-size="9" font-weight="bold" fill="#6b7280">Descripción</text>
  <text x="620" y="180" font-size="9" font-weight="bold" fill="#6b7280">Prioridad</text>
  <text x="700" y="180" font-size="9" font-weight="bold" fill="#6b7280">Estado</text>
  <text x="780" y="180" font-size="9" font-weight="bold" fill="#6b7280">Fecha</text>
  
  <!-- Filas -->
  <rect x="280" y="190" width="560" height="35" fill="#f9fafb"/>
  <text x="300" y="212" font-size="10" fill="#374151">1</text>
  <text x="330" y="212" font-size="10" fill="#374151">Aula 101</text>
  <text x="480" y="212" font-size="10" fill="#374151">Aire acondicionado...</text>
  <rect x="620" y="195" width="50" height="20" rx="10" fill="#ef4444"/>
  <text x="645" y="209" text-anchor="middle" font-size="8" fill="white">ALTA</text>
  <rect x="700" y="195" width="60" height="20" rx="10" fill="#f59e0b"/>
  <text x="730" y="209" text-anchor="middle" font-size="8" fill="white">PENDIENTE</text>
  <text x="780" y="212" font-size="10" fill="#6b7280">01/04</text>
  
  <rect x="280" y="225" width="560" height="35"/>
  <text x="300" y="247" font-size="10" fill="#374151">2</text>
  <text x="330" y="247" font-size="10" fill="#374151">Lab-203</text>
  <text x="480" y="247" font-size="10" fill="#374151">Proyector dañado</text>
  <rect x="620" y="230" width="50" height="20" rx="10" fill="#6b7280"/>
  <text x="645" y="244" text-anchor="middle" font-size="8" fill="white">BAJA</text>
  <rect x="700" y="230" width="60" height="20" rx="10" fill="#10b981"/>
  <text x="730" y="244" text-anchor="middle" font-size="8" fill="white">RESUELTO</text>
  <text x="780" y="247" font-size="10" fill="#6b7280">28/03</text>
  
  <rect x="280" y="260" width="560" height="35" fill="#f9fafb"/>
  <text x="300" y="282" font-size="10" fill="#374151">3</text>
  <text x="330" y="282" font-size="10" fill="#374151">Baños Piso 2</text>
  <text x="480" y="282" font-size="10" fill="#374151">Fuga de agua</text>
  <rect x="620" y="265" width="50" height="20" rx="10" fill="#3b82f6"/>
  <text x="645" y="279" text-anchor="middle" font-size="8" fill="white">MEDIA</text>
  <rect x="700" y="265" width="60" height="20" rx="10" fill="#3b82f6"/>
  <text x="730" y="279" text-anchor="middle" font-size="8" fill="white">EN PROCESO</text>
  <text x="780" y="282" font-size="10" fill="#6b7280">25/03</text>
  
  <!-- Botones de acción -->
  <rect x="280" y="310" width="560" height="30"/>
  <rect x="700" y="315" width="60" height="20" rx="3" fill="#3b82f6"/>
  <text x="730" y="329" text-anchor="middle" font-size="9" fill="white">Ver más</text>
  <rect x="770" y="315" width="60" height="20" rx="3" fill="#10b981"/>
  <text x="800" y="329" text-anchor="middle" font-size="9" fill="white">+ Crear</text>
  
  <!-- Actividad Reciente -->
  <rect x="50" y="340" width="200" height="150" rx="5" fill="white" stroke="#e5e7eb"/>
  <text x="150" y="365" text-anchor="middle" font-size="12" font-weight="bold" fill="#1f2937">Actividad</text>
  
  <circle cx="70" cy="390" r="8" fill="#10b981"/>
  <text x="85" y="394" font-size="9" fill="#374151">Reporte #12 creado</text>
  <text x="170" y="394" font-size="8" fill="#9ca3af">Hace 2h</text>
  
  <circle cx="70" cy="415" r="8" fill="#3b82f6"/>
  <text x="85" y="419" font-size="9" fill="#374151">Reporte #10 actualizado</text>
  <text x="170" y="419" font-size="8" fill="#9ca3af">Ayer</text>
  
  <circle cx="70" cy="440" r="8" fill="#f59e0b"/>
  <text x="85" y="444" font-size="9" fill="#374151">Notificación leída</text>
  <text x="170" y="444" font-size="8" fill="#9ca3af">28/03</text>
  
  <!-- Footer -->
  <text x="450" y="500" text-anchor="middle" font-size="10" fill="#9ca3af">Sistema de Reporte de Infraestructura - ITSC © 2026</text>
  
  <!-- Etiquetas -->
  <line x1="40" y1="100" x2="50" y2="100" stroke="#8b5cf6"/>
  <text x="35" y="103" text-anchor="end" font-size="9" fill="#8b5cf6">Navbar</text>
  
  <line x1="260" y1="220" x2="245" y2="220" stroke="#10b981"/>
  <text x="240" y="223" text-anchor="end" font-size="9" fill="#10b981">Stats</text>
  
  <line x1="560" y1="270" x2="860" y2="270" stroke="#f59e0b"/>
  <text x="865" y="273" font-size="9" fill="#f59e0b">Tabla reportes</text>
</svg>