<svg xmlns="http://www.w3.org/2000/svg" viewBox="0 0 1000 700">
  <!-- Fondo -->
  <rect width="1000" height="700" fill="#f3f4f6"/>
  
  <!-- Título -->
  <text x="500" y="30" text-anchor="middle" font-size="18" font-weight="bold" fill="#1e40af">VISTAS PRINCIPALES DEL SISTEMA</text>
  
  <!-- Dashboard Admin (izquierda) -->
  <rect x="30" y="60" width="300" height="200" rx="10" fill="white" stroke="#ef4444" stroke-width="2"/>
  <rect x="30" y="60" width="300" height="35" rx="10" fill="#ef4444"/>
  <text x="50" y="83" font-size="12" fill="white">👤 ADMIN</text>
  
  <!-- Stats Admin -->
  <rect x="50" y="110" width="80" height="60" rx="5" fill="#fef2f2"/>
  <text x="90" y="135" text-anchor="middle" font-size="20" font-weight="bold" fill="#ef4444">156</text>
  <text x="90" y="155" text-anchor="middle" font-size="9" fill="#991b1b">Total Reportes</text>
  
  <rect x="140" y="110" width="80" height="60" rx="5" fill="#fef3c7"/>
  <text x="180" y="135" text-anchor="middle" font-size="20" font-weight="bold" fill="#d97706">45</text>
  <text x="180" y="155" text-anchor="middle" font-size="9" fill="#92400e">Pendientes</text>
  
  <rect x="230" y="110" width="80" height="60" rx="5" fill="#ecfdf5"/>
  <text x="270" y="135" text-anchor="middle" font-size="20" font-weight="bold" fill="#059669">89</text>
  <text x="270" y="155" text-anchor="middle" font-size="9" fill="#065f46">Resueltos</text>
  
  <rect x="50" y="180" width="260" height="60" rx="5" fill="#dbeafe"/>
  <text x="180" y="205" text-anchor="middle" font-size="11" font-weight="bold" fill="#1e40af">📊 ESTADÍSTICAS COMPLETAS</text>
  <text x="180" y="225" text-anchor="middle" font-size="9" fill="#1e40af">Gráficos • Usuarios • Métricas</text>
  
  <!-- Dashboard Mantenimiento (centro) -->
  <rect x="350" y="60" width="300" height="200" rx="10" fill="white" stroke="#f59e0b" stroke-width="2"/>
  <rect x="350" y="60" width="300" height="35" rx="10" fill="#f59e0b"/>
  <text x="370" y="83" font-size="12" fill="white">🔧 MANTENIMIENTO</text>
  
  <rect x="370" y="110" width="120" height="90" rx="5" fill="#fffbeb" stroke="#f59e0b"/>
  <text x="430" y="135" text-anchor="middle" font-size="28" font-weight="bold" fill="#d97706">12</text>
  <text x="430" y="160" text-anchor="middle" font-size="10" fill="#92400e">Pendientes por atender</text>
  <text x="430" y="180" text-anchor="middle" font-size="9" fill="#d97706">🔴 3 Prioritarios</text>
  
  <rect x="510" y="110" width="120" height="40" rx="5" fill="#dbeafe"/>
  <text x="570" y="135" text-anchor="middle" font-size="18" font-weight="bold" fill="#1e40af">8</text>
  <text x="570" y="150" text-anchor="middle" font-size="9" fill="#1e40af">En Proceso</text>
  
  <rect x="510" y="160" width="120" height="40" rx="5" fill="#ecfdf5"/>
  <text x="570" y="185" text-anchor="middle" font-size="18" font-weight="bold" fill="#059669">134</text>
  <text x="570" y="200" text-anchor="middle" font-size="9" fill="#065f46">Resueltos</text>
  
  <!-- Dashboard Usuario (derecha) -->
  <rect x="670" y="60" width="300" height="200" rx="10" fill="white" stroke="#10b981" stroke-width="2"/>
  <rect x="670" y="60" width="300" height="35" rx="10" fill="#10b981"/>
  <text x="690" y="83" font-size="12" fill="white">👨‍🎓 USUARIO</text>
  
  <rect x="690" y="110" width="80" height="60" rx="5" fill="#f3f4f6"/>
  <text x="730" y="135" text-anchor="middle" font-size="20" font-weight="bold" fill="#374151">8</text>
  <text x="730" y="155" text-anchor="middle" font-size="9" fill="#6b7280">Mis Reportes</text>
  
  <rect x="780" y="110" width="80" height="60" rx="5" fill="#fef2f2"/>
  <text x="820" y="135" text-anchor="middle" font-size="20" font-weight="bold" fill="#ef4444">2</text>
  <text x="820" y="155" text-anchor="middle" font-size="9" fill="#991b1b">Pendientes</text>
  
  <rect x="870" y="110" width="80" height="60" rx="5" fill="#ecfdf5"/>
  <text x="910" y="135" text-anchor="middle" font-size="20" font-weight="bold" fill="#059669">5</text>
  <text x="910" y="155" text-anchor="middle" font-size="9" fill="#065f46">Resueltos</text>
  
  <rect x="690" y="180" width="260" height="60" rx="5" fill="#f9fafb"/>
  <text x="820" y="205" text-anchor="middle" font-size="10" fill="#374151">Último reporte: Aula 201</text>
  <text x="820" y="225" text-anchor="middle" font-size="10" fill="#374151">Estado: En Proceso</text>
  
  <!-- Sección inferior - Características comunes -->
  <rect x="30" y="290" width="940" height="120" rx="10" fill="white" stroke="#3b82f6"/>
  <text x="500" y="315" text-anchor="middle" font-size="14" font-weight="bold" fill="#1e40af">CARACTERÍSTICAS COMUNES</text>
  
  <circle cx="80" cy="350" r="25" fill="#3b82f6"/>
  <text x="80" y="355" text-anchor="middle" font-size="16" fill="white">📋</text>
  <text x="115" y="345" font-size="11" font-weight="bold" fill="#1f2937">Listado de Reportes</text>
  <text x="115" y="360" font-size="9" fill="#6b7280">Ver todos o propios según rol</text>
  
  <circle cx="280" cy="350" r="25" fill="#10b981"/>
  <text x="280" y="355" text-anchor="middle" font-size="16" fill="white">➕</text>
  <text x="315" y="345" font-size="11" font-weight="bold" fill="#1f2937">Crear Reportes</text>
  <text x="315" y="360" font-size="9" fill="#6b7280">Con foto y prioridad</text>
  
  <circle cx="480" cy="350" r="25" fill="#f59e0b"/>
  <text x="480" y="355" text-anchor="middle" font-size="16" fill="white">🔍</text>
  <text x="515" y="345" font-size="11" font-weight="bold" fill="#1f2937">Filtros y Búsqueda</text>
  <text x="515" y="360" font-size="9" fill="#6b7280">Por estado, prioridad, fecha</text>
  
  <circle cx="700" cy="350" r="25" fill="#8b5cf6"/>
  <text x="700" y="355" text-anchor="middle" font-size="16" fill="white">🔔</text>
  <text x="735" y="345" font-size="11" font-weight="bold" fill="#1f2937">Notificaciones</text>
  <text x="735" y="360" font-size="9" fill="#6b7280">En tiempo real</text>
  
  <circle cx="900" cy="350" r="25" fill="#ef4444"/>
  <text x="900" y="355" text-anchor="middle" font-size="16" fill="white">📊</text>
  <text x="935" y="345" font-size="11" font-weight="bold" fill="#1f2937">Estadísticas</text>
  <text x="935" y="360" font-size="9" fill="#6b7280">Según rol del usuario</text>
  
  <!-- Mockups adicionales pequeños -->
  <rect x="30" y="440" width="460" height="240" rx="10" fill="#f8fafc" stroke="#e5e7eb"/>
  <text x="260" y="465" text-anchor="middle" font-size="12" font-weight="bold" fill="#374151">VISTA DE DETALLE DE REPORTE</text>
  
  <rect x="50" y="480" width="420" height="180" rx="5" fill="white"/>
  <rect x="50" y="480" width="420" height="30" fill="#3b82f6"/>
  <text x="70" y="500" font-size="10" fill="white">#12 - Aula 101</text>
  <text x="70" y="525" font-size="10" fill="#374151"><tspan font-weight="bold">Descripción:</tspan> Aire acondicionado no enfría...</text>
  <text x="70" y="545" font-size="10" fill="#374151"><tspan font-weight="bold">Prioridad:</tspan></text>
  <rect x="140" y="538" width="50" height="18" rx="9" fill="#ef4444"/>
  <text x="165" y="551" text-anchor="middle" font-size="8" fill="white">ALTA</text>
  <text x="70" y="575" font-size="10" fill="#374151"><tspan font-weight="bold">Estado:</tspan></text>
  <rect x="130" y="568" width="70" height="18" rx="9" fill="#f59e0b"/>
  <text x="165" y="581" text-anchor="middle" font-size="8" fill="white">PENDIENTE</text>
  <text x="70" y="605" font-size="10" fill="#374151"><tspan font-weight="bold">Reportado por:</tspan> Juan Pérez (Estudiante)</text>
  <text x="70" y="625" font-size="10" fill="#374151"><tspan font-weight="bold">Fecha:</tspan> 01/04/2026 10:30 AM</text>
  <rect x="320" y="590" width="130" height="50" rx="5" fill="#f3f4f6"/>
  <text x="385" y="610" text-anchor="middle" font-size="10" fill="#6b7280">📷 Foto adjunta</text>
  <text x="385" y="625" text-anchor="middle" font-size="9" fill="#9ca3af">(opcional)</text>
  
  <rect x="510" y="440" width="460" height="240" rx="10" fill="#f8fafc" stroke="#e5e7eb"/>
  <text x="740" y="465" text-anchor="middle" font-size="12" font-weight="bold" fill="#374151">HISTORIAL CON FILTROS</text>
  
  <rect x="530" y="480" width="420" height="180" rx="5" fill="white"/>
  <!-- Filtros -->
  <rect x="540" y="490" width="80" height="25" rx="3" fill="#e5e7eb"/>
  <text x="580" y="507" text-anchor="middle" font-size="9" fill="#374151">Estado ▼</text>
  <rect x="630" y="490" width="80" height="25" rx="3" fill="#e5e7eb"/>
  <text x="670" y="507" text-anchor="middle" font-size="9" fill="#374151">Prioridad ▼</text>
  <rect x="720" y="490" width="100" height="25" rx="3" fill="#e5e7eb"/>
  <text x="770" y="507" text-anchor="middle" font-size="9" fill="#374151">📅 Desde - Hasta</text>
  <rect x="830" y="490" width="110" height="25" rx="3" fill="#f3f4f6" stroke="#d1d5db"/>
  <text x="885" y="507" text-anchor="middle" font-size="9" fill="#9ca3af">🔍 Buscar...</text>
  
  <!-- Tabla historial -->
  <rect x="540" y="525" width="400" height="120" rx="3" fill="#f9fafb"/>
  <text x="555" y="545" font-size="8" fill="#6b7280">#</text>
  <text x="575" y="545" font-size="8" fill="#6b7280">Ubicación</text>
  <text x="680" y="545" font-size="8" fill="#6b7280">Estado</text>
  <text x="750" y="545" font-size="8" fill="#6b7280">Prioridad</text>
  <text x="830" y="545" font-size="8" fill="#6b7280">Fecha</text>
  
  <line x1="540" y1="555" x2="940" y2="555" stroke="#e5e7eb"/>
  <text x="555" y="570" font-size="8" fill="#374151">1</text>
  <text x="575" y="570" font-size="8" fill="#374151">Aula 101</text>
  <rect x="680" y="563" width="50" height="14" rx="7" fill="#f59e0b"/>
  <text x="705" y="573" text-anchor="middle" font-size="6" fill="white">PEND.</text>
  <rect x="750" y="563" width="40" height="14" rx="7" fill="#ef4444"/>
  <text x="770" y="573" text-anchor="middle" font-size="6" fill="white">ALTA</text>
  <text x="830" y="570" font-size="8" fill="#6b7280">01/04</text>
  
  <text x="555" y="590" font-size="8" fill="#374151">2</text>
  <text x="575" y="590" font-size="8" fill="#374151">Lab-203</text>
  <rect x="680" y="583" width="50" height="14" rx="7" fill="#10b981"/>
  <text x="705" y="593" text-anchor="middle" font-size="6" fill="white">RESUELTO</text>
  <rect x="750" y="583" width="40" height="14" rx="7" fill="#6b7280"/>
  <text x="770" y="593" text-anchor="middle" font-size="6" fill="white">BAJA</text>
  <text x="830" y="590" font-size="8" fill="#6b7280">28/03</text>
  
  <text x="555" y="610" font-size="8" fill="#374151">3</text>
  <text x="575" y="610" font-size="8" fill="#374151">Baños P2</text>
  <rect x="680" y="603" width="50" height="14" rx="7" fill="#3b82f6"/>
  <text x="705" y="613" text-anchor="middle" font-size="6" fill="white">EN PROCESO</text>
  <rect x="750" y="603" width="40" height="14" rx="7" fill="#3b82f6"/>
  <text x="770" y="613" text-anchor="middle" font-size="6" fill="white">MEDIA</text>
  <text x="830" y="610" font-size="8" fill="#6b7280">25/03</text>
  
  <rect x="540" y="635" width="400" height="20" rx="3" fill="#f3f4f6"/>
  <text x="740" y="649" text-anchor="middle" font-size="9" fill="#6b7280">📄 Página 1 de 5</text>
  
  <!-- Leyenda final -->
  <text x="500" y="700" text-anchor="middle" font-size="10" fill="#9ca3af">Sistema de Reporte de Infraestructura - ITSC © 2026</text>
</svg>